<?xml version="1.0" encoding="UTF-8" standalone="no"?>
<!DOCTYPE svg PUBLIC "-//W3C//DTD SVG 1.1//EN" "http://www.w3.org/Graphics/SVG/1.1/DTD/svg11.dtd">
<svg width="100%" height="100%" viewBox="0 0 512 512" version="1.1" xmlns="http://www.w3.org/2000/svg" xmlns:xlink="http://www.w3.org/1999/xlink" xml:space="preserve" xmlns:serif="http://www.serif.com/" style="fill-rule:evenodd;clip-rule:evenodd;stroke-linejoin:round;stroke-miterlimit:2;">
    <g>
        <g>
            <g>
                <path d="M264.789,110.933C269.508,110.933 273.322,107.11 273.322,102.4C273.322,97.69 269.508,93.867 264.789,93.867L264.704,93.867C259.994,93.867 256.213,97.69 256.213,102.4C256.213,107.11 260.079,110.933 264.789,110.933Z" style="fill:white;fill-rule:nonzero;"/>
                <path d="M196.523,93.867C201.242,93.867 205.056,90.044 205.056,85.334C205.056,80.624 201.242,76.801 196.523,76.801L196.438,76.801C191.728,76.801 187.947,80.624 187.947,85.334C187.947,90.044 191.812,93.867 196.523,93.867Z" style="fill:white;fill-rule:nonzero;"/>
                <path d="M315.989,76.8C320.708,76.8 324.522,72.977 324.522,68.267C324.522,63.557 320.708,59.734 315.989,59.734L315.904,59.734C311.194,59.734 307.413,63.557 307.413,68.267C307.413,72.977 311.279,76.8 315.989,76.8Z" style="fill:white;fill-rule:nonzero;"/>
                <path d="M384.256,93.867C388.975,93.867 392.789,90.044 392.789,85.334C392.789,80.624 388.975,76.801 384.256,76.801L384.171,76.801C379.461,76.801 375.68,80.624 375.68,85.334C375.68,90.044 379.546,93.867 384.256,93.867Z" style="fill:white;fill-rule:nonzero;"/>
                <path d="M350.123,110.933C354.842,110.933 358.656,107.11 358.656,102.4C358.656,97.69 354.842,93.867 350.123,93.867L350.038,93.867C345.328,93.867 341.547,97.69 341.547,102.4C341.547,107.11 345.412,110.933 350.123,110.933Z" style="fill:white;fill-rule:nonzero;"/>
                <path d="M247.723,59.733C252.442,59.733 256.256,55.91 256.256,51.2C256.256,46.49 252.442,42.667 247.723,42.667L247.638,42.667C242.928,42.667 239.147,46.49 239.147,51.2C239.147,55.91 243.012,59.733 247.723,59.733Z" style="fill:white;fill-rule:nonzero;"/>
                <path d="M469.333,418.133L42.667,418.133C28.553,418.133 17.067,429.619 17.067,443.733L17.067,460.8C17.067,484.326 36.207,503.467 59.734,503.467L452.267,503.467C475.793,503.467 494.934,484.327 494.934,460.8L494.934,443.733C494.933,429.619 483.456,418.133 469.333,418.133ZM477.867,460.8C477.867,474.914 466.39,486.4 452.267,486.4L59.733,486.4C45.619,486.4 34.133,474.914 34.133,460.8L34.133,443.733C34.133,439.031 37.964,435.2 42.666,435.2L469.333,435.2C474.035,435.2 477.866,439.031 477.866,443.733L477.866,460.8L477.867,460.8Z" style="fill:white;fill-rule:nonzero;"/>
                <path d="M40.158,398.575C44.245,394.522 57.259,384 68.267,384C73.063,384 75.119,385.852 79.301,390.033C83.96,394.692 90.335,401.067 102.401,401.067C114.467,401.067 120.85,394.693 125.501,390.033C129.682,385.852 131.739,384 136.535,384C141.331,384 143.387,385.852 147.569,390.033C152.228,394.692 158.603,401.067 170.669,401.067C182.735,401.067 189.118,394.693 193.769,390.033C197.95,385.852 200.007,384 204.803,384C209.599,384 211.655,385.852 215.837,390.033C220.496,394.692 226.871,401.067 238.937,401.067C251.003,401.067 257.386,394.693 262.037,390.033C266.218,385.852 268.275,384 273.071,384C277.867,384 279.923,385.852 284.105,390.033C288.764,394.692 295.139,401.067 307.205,401.067C319.271,401.067 325.654,394.693 330.305,390.033C334.486,385.852 336.543,384 341.339,384C346.135,384 348.191,385.852 352.373,390.033C357.032,394.692 363.407,401.067 375.473,401.067C387.539,401.067 393.922,394.693 398.573,390.033C402.754,385.852 404.811,384 409.607,384C414.403,384 416.459,385.852 420.641,390.033C425.3,394.692 431.675,401.067 443.741,401.067C463.769,401.067 481.911,383.505 483.907,381.5C487.235,378.172 487.235,372.787 483.916,369.451C480.597,366.115 475.186,366.097 471.858,369.425C467.763,373.478 454.741,384 443.733,384C438.937,384 436.881,382.148 432.699,377.967C428.048,373.308 421.665,366.933 409.599,366.933C397.533,366.933 391.158,373.307 386.499,377.967C382.318,382.148 380.261,384 375.465,384C370.669,384 368.613,382.148 364.431,377.967C359.78,373.308 353.397,366.933 341.331,366.933C329.265,366.933 322.89,373.307 318.231,377.967C314.05,382.148 311.993,384 307.197,384C302.401,384 300.345,382.148 296.163,377.967C291.512,373.308 285.129,366.933 273.063,366.933C260.997,366.933 254.623,373.307 249.963,377.967C245.782,382.148 243.725,384 238.929,384C234.133,384 232.077,382.148 227.895,377.967C223.244,373.308 216.861,366.933 204.795,366.933C192.729,366.933 186.355,373.307 181.695,377.967C177.514,382.148 175.457,384 170.661,384C165.865,384 163.809,382.148 159.627,377.967C154.976,373.308 148.593,366.933 136.527,366.933C124.461,366.933 118.087,373.307 113.427,377.967C109.246,382.148 107.189,384 102.393,384C97.597,384 95.541,382.148 91.359,377.967C86.708,373.308 80.325,366.933 68.259,366.933C48.24,366.933 30.098,384.495 28.093,386.5C24.765,389.828 24.765,395.213 28.084,398.549C31.411,401.877 36.813,401.894 40.158,398.575Z" style="fill:white;fill-rule:nonzero;"/>
                <path d="M486.4,281.6L221.867,281.6C217.157,281.6 213.334,285.423 213.334,290.133C213.334,294.843 217.157,298.666 221.867,298.666L486.4,298.666C491.102,298.666 494.933,302.497 494.933,307.199L494.933,324.266C494.933,328.968 491.102,332.799 486.4,332.799L25.6,332.799C20.898,332.799 17.067,328.968 17.067,324.266L17.067,307.2C17.067,302.498 20.898,298.667 25.6,298.667L102.4,298.667C107.11,298.667 110.933,294.844 110.933,290.134C110.933,285.424 107.11,281.601 102.4,281.601L25.6,281.601C11.486,281.6 0,293.086 0,307.2L0,324.267C0,338.381 11.486,349.867 25.6,349.867L486.4,349.867C500.523,349.867 512,338.381 512,324.267L512,307.2C512,293.086 500.523,281.6 486.4,281.6Z" style="fill:white;fill-rule:nonzero;"/>
                <path d="M213.333,247.467C211.072,247.467 208.904,248.363 207.3,249.967L162.133,295.134L116.966,249.967C115.37,248.363 113.194,247.467 110.933,247.467L42.667,247.467C37.957,247.467 34.134,251.29 34.134,256C34.134,260.71 37.957,264.533 42.667,264.533L107.401,264.533L156.101,313.233C157.765,314.897 159.95,315.733 162.134,315.733C164.319,315.733 166.503,314.897 168.167,313.233L216.867,264.533L469.334,264.533C474.044,264.533 477.867,260.71 477.867,256C477.867,251.29 474.044,247.467 469.334,247.467L213.333,247.467Z" style="fill:white;fill-rule:nonzero;"/>
                <path d="M145.323,76.8C150.042,76.8 153.856,72.977 153.856,68.267C153.856,63.557 150.042,59.734 145.323,59.734L145.238,59.734C140.528,59.734 136.747,63.557 136.747,68.267C136.747,72.977 140.612,76.8 145.323,76.8Z" style="fill:white;fill-rule:nonzero;"/>
                <path d="M42.667,230.4L469.334,230.4C484.165,230.4 494.934,219.631 494.9,205.568C495.173,202.624 500.873,132.753 449.4,76.39C408.277,31.36 343.211,8.533 256,8.533C168.789,8.533 103.723,31.36 62.609,76.39C11.136,132.753 16.836,202.624 17.067,204.8C17.067,219.631 27.836,230.4 42.667,230.4ZM75.204,87.893C112.956,46.558 173.781,25.6 256,25.6C338.091,25.6 398.865,46.498 436.634,87.714C483.064,138.394 477.961,203.392 477.867,204.8C477.867,210.304 474.838,213.333 469.334,213.333L42.667,213.333C37.24,213.333 34.134,210.227 34.099,204.032C34.039,203.375 28.757,138.761 75.204,87.893Z" style="fill:white;fill-rule:nonzero;"/>
            </g>
        </g>
    </g>
</svg>
